<svg
  xmlns="http://www.w3.org/2000/svg"
  fill="currentColor"
  width="24"
  height="24"
  viewBox="0 0 18.06 14.56"
>
  <path
    d="M17.6,6.17c0.43,0.16.26,0.67,0.28,1.29a0.9,0.9,0,0,1-.24.77c-0.16.12-.38,0.12-0.54,0.25a0.56,0.56,0,0,0,.3.91,1,1,0,0,0,1-.49,3.71,3.71,0,0,0,.44-2.28,2.93,2.93,0,0,0-.17-1.11,1.29,1.29,0,0,0-.11-0.2c-0.68-1-2.56.08-3.32,0.45a0.59,0.59,0,0,1-.35.09,0.7,0.7,0,0,1-.39-0.37C13.4,3.8,10.39,4.7,8.91,5.28a3.88,3.88,0,0,0-2-2.45,2.89,2.89,0,0,0-3,.34,2.45,2.45,0,0,0-.42,1.9,8.1,8.1,0,0,0,.46,2,1.18,1.18,0,0,0,.32.52,0.45,0.45,0,0,0,.57,0,0.61,0.61,0,0,0,.13-0.5C4.87,6.27,4.44,5.45,4.36,4.58A0.9,0.9,0,0,1,4.45,4,0.85,0.85,0,0,1,4.93,3.7a2.33,2.33,0,0,1,2.27.57c0.6,0.58.52,1.85,1.43,2A2.53,2.53,0,0,0,10,6.09a6.91,6.91,0,0,1,2.05-.54,2.12,2.12,0,0,1,1.87.81,1.48,1.48,0,0,0,.52.63,1.12,1.12,0,0,0,1-.26,4.09,4.09,0,0,1,1.69-.6A1.19,1.19,0,0,1,17.6,6.17Z"
    transform="translate(-0.97 -2.57)"></path>
  <path
    d="M2.32,10.52a4.79,4.79,0,0,1,2,.08,3.85,3.85,0,0,0,1.09.17,0.49,0.49,0,0,0,.18-1c-1-.37-3-0.79-4-0.18a0.55,0.55,0,0,0-.2.77A0.88,0.88,0,0,0,2.32,10.52Z"
    transform="translate(-0.97 -2.57)"></path>
  <path
    d="M5.88,12a0.51,0.51,0,0,0-.69-0.18A13.12,13.12,0,0,1,1.39,13.3a0.5,0.5,0,0,0,.09,1H1.56a14,14,0,0,0,4.14-1.6A0.5,0.5,0,0,0,5.88,12Z"
    transform="translate(-0.97 -2.57)"></path>
  <path
    d="M17.5,15.44A2.87,2.87,0,0,1,16,13.7a0.49,0.49,0,0,0-1,0,1.14,1.14,0,0,0,.15.73c0.36,0.74,1.41,2.12,2.37,2.12A0.5,0.5,0,0,0,18,15.77,1.4,1.4,0,0,0,17.5,15.44Z"
    transform="translate(-0.97 -2.57)"></path>
  <path
    d="M19,13.15a1.09,1.09,0,0,0-.25-0.42c-0.6-.69-1.83-1.54-2.81-1.31a0.52,0.52,0,0,0-.39.61,0.49,0.49,0,0,0,.59.38s0.68-.06,2,1.24a0.47,0.47,0,0,0,.35.14A0.5,0.5,0,0,0,19,13.15Z"
    transform="translate(-0.97 -2.57)"></path>
  <path
    d="M13.76,15.93c-5.81.73-7.47-1.73-7.49-1.77a0.5,0.5,0,0,0-.86.53c1.23,2,3.91,2.51,6.29,2.43a18,18,0,0,0,1.9-.16,1.12,1.12,0,0,0,.57-0.19A0.49,0.49,0,0,0,13.76,15.93Z"
    transform="translate(-0.97 -2.57)"></path>
  <path
    d="M9.36,10.29a0.81,0.81,0,0,0-1.29-.6,0.8,0.8,0,0,0-.31.77,0.82,0.82,0,0,0,1.53.14A0.78,0.78,0,0,0,9.36,10.29Z"
    transform="translate(-0.97 -2.57)"></path>
  <path
    d="M13.82,10.72a0.81,0.81,0,0,0-1.57-.25,0.78,0.78,0,0,0,.21.81A0.83,0.83,0,0,0,13.82,10.72Z"
    transform="translate(-0.97 -2.57)"></path>

    <style>
        svg { color: #000; }
        @media (prefers-color-scheme: dark) {
            svg { color: #FFF; }
        }
    </style>
</svg>